<svg width="128" height="128" viewBox="0 0 128 128" fill="none" xmlns="http://www.w3.org/2000/svg">
  <rect width="128" height="128" fill="#E5E7EB" />
  <path
    d="M17.3509 82V80.416C18.5669 80.352 19.3989 80.08 19.8469 79.6C20.2949 79.088 20.5349 78.4 20.5669 77.536C20.6309 76.64 20.6629 75.632 20.6629 74.512V53.776C20.6629 53.136 20.6789 52.528 20.7109 51.952C20.7429 51.344 20.7749 50.8 20.8069 50.32C20.2309 50.352 19.6549 50.384 19.0789 50.416C18.5029 50.448 17.9269 50.48 17.3509 50.512V48.4H28.1509V49.984C26.9669 50.016 26.1349 50.288 25.6549 50.8C25.2069 51.312 24.9509 52 24.8869 52.864C24.8549 53.728 24.8389 54.736 24.8389 55.888V63.76H28.4389L34.4389 54.304C34.8549 53.664 35.3669 52.96 35.9749 52.192C36.5829 51.424 37.2069 50.784 37.8469 50.272C37.3669 50.304 36.8709 50.32 36.3589 50.32C35.8789 50.32 35.3989 50.336 34.9189 50.368V48.4H45.2389V49.984C43.8949 50.08 42.6949 50.304 41.6389 50.656C40.5829 51.008 39.5749 51.632 38.6149 52.528C37.6549 53.392 36.6309 54.704 35.5429 56.464L30.8389 63.952C31.7669 64.496 32.5189 65.136 33.0949 65.872C33.6709 66.576 34.2469 67.296 34.8229 68.032L40.1989 75.184C41.4149 76.784 42.4069 77.968 43.1749 78.736C43.9749 79.472 44.6789 79.936 45.2869 80.128C45.9269 80.32 46.5829 80.416 47.2549 80.416V82H41.3989C41.0789 82 40.6469 81.776 40.1029 81.328C39.5909 80.88 39.0309 80.304 38.4229 79.6C37.8149 78.864 37.1909 78.096 36.5509 77.296L30.7909 69.52C30.1829 68.72 29.5749 67.968 28.9669 67.264C28.3589 66.528 27.7669 65.984 27.1909 65.632L24.8389 65.68V76.288C24.8389 77.152 24.8229 77.904 24.7909 78.544C24.7909 79.152 24.7589 79.664 24.6949 80.08C25.2709 80.048 25.8469 80.016 26.4229 79.984C26.9989 79.952 27.5749 79.92 28.1509 79.888V82H17.3509ZM60.4846 82.768C59.0766 82.768 57.7006 82.592 56.3566 82.24C55.0126 81.92 53.7966 81.392 52.7086 80.656C51.6526 79.888 50.8046 78.912 50.1646 77.728C49.5246 76.512 49.2046 75.056 49.2046 73.36C49.2046 71.28 49.8766 69.44 51.2206 67.84C52.5966 66.24 54.4366 64.944 56.7406 63.952C55.9086 62.864 55.2206 61.856 54.6766 60.928C54.1326 59.968 53.7326 59.024 53.4766 58.096C53.2206 57.136 53.0926 56.16 53.0926 55.168C53.1246 52.864 53.9726 51.04 55.6366 49.696C57.3006 48.32 59.4126 47.632 61.9726 47.632C63.6046 47.632 65.0126 47.936 66.1966 48.544C67.4126 49.12 68.3406 49.92 68.9806 50.944C69.6526 51.936 69.9886 53.072 69.9886 54.352C69.9886 55.536 69.7326 56.672 69.2206 57.76C68.7086 58.848 67.8766 59.904 66.7246 60.928C65.5726 61.92 64.0366 62.912 62.1166 63.904C62.9806 64.8 63.9246 65.792 64.9486 66.88C66.0046 67.968 67.0606 69.04 68.1166 70.096C69.1726 71.12 70.1326 72.048 70.9966 72.88C71.1566 72.304 71.2686 71.76 71.3326 71.248C71.4286 70.704 71.4766 70.224 71.4766 69.808C71.4766 69.072 71.3646 68.352 71.1406 67.648C70.9486 66.912 70.5806 66.304 70.0366 65.824C69.5246 65.312 68.7886 65.04 67.8286 65.008V63.424H76.2286V65.392L72.2446 65.2C72.7566 65.616 73.1246 66.16 73.3486 66.832C73.5726 67.504 73.7006 68.288 73.7326 69.184C73.7646 69.792 73.7006 70.576 73.5406 71.536C73.4126 72.464 73.1566 73.44 72.7726 74.464C73.1246 74.784 73.4926 75.136 73.8766 75.52C74.2926 75.872 74.7246 76.24 75.1726 76.624C76.6126 77.904 77.8446 78.864 78.8686 79.504C79.9246 80.112 80.7086 80.416 81.2206 80.416V82H76.7566C76.4686 82 75.8126 81.712 74.7886 81.136C73.7966 80.528 72.4686 79.488 70.8046 78.016C69.7806 79.328 68.4206 80.448 66.7246 81.376C65.0606 82.304 62.9806 82.768 60.4846 82.768ZM61.0606 80.368C63.0766 80.432 64.7406 80.112 66.0526 79.408C67.3966 78.672 68.4686 77.76 69.2686 76.672C69.0446 76.448 68.8206 76.24 68.5966 76.048C68.3726 75.824 68.1326 75.6 67.8766 75.376C65.7326 73.264 63.8286 71.392 62.1646 69.76C60.5326 68.128 59.1406 66.656 57.9886 65.344C56.9646 65.952 56.1646 66.704 55.5886 67.6C55.0126 68.496 54.5966 69.392 54.3406 70.288C54.1166 71.184 54.0046 71.968 54.0046 72.64C54.0046 74.4 54.3406 75.84 55.0126 76.96C55.7166 78.08 56.5966 78.912 57.6526 79.456C58.7406 80 59.8766 80.304 61.0606 80.368ZM61.0606 62.752C62.8526 61.568 64.1806 60.256 65.0446 58.816C65.9086 57.344 66.3406 55.904 66.3406 54.496C66.3406 52.96 65.9406 51.696 65.1406 50.704C64.3406 49.68 63.2046 49.168 61.7326 49.168C60.4206 49.168 59.3166 49.664 58.4206 50.656C57.5566 51.616 57.1246 52.992 57.1246 54.784C57.1246 56.16 57.4926 57.52 58.2286 58.864C58.9966 60.208 59.9406 61.504 61.0606 62.752ZM82.9542 82V80.416C83.9142 80.416 84.6502 80.16 85.1622 79.648C85.6742 79.136 86.0902 78.432 86.4102 77.536C86.7622 76.64 87.1622 75.6 87.6102 74.416L97.4982 47.488H98.6502L109.354 74.8C109.61 75.472 109.898 76.336 110.218 77.392C110.538 78.448 110.666 79.344 110.602 80.08C111.146 80.048 111.69 80.016 112.234 79.984C112.778 79.952 113.322 79.92 113.866 79.888V82H102.874V80.416C104.09 80.384 104.89 80.112 105.274 79.6C105.658 79.088 105.802 78.48 105.706 77.776C105.61 77.072 105.45 76.432 105.226 75.856L103.546 71.344L91.0662 71.632L89.3862 76.768C89.1622 77.536 88.9542 78.144 88.7622 78.592C88.6022 79.04 88.4102 79.536 88.1862 80.08C88.8262 80.048 89.4502 80.016 90.0582 79.984C90.6982 79.952 91.3222 79.92 91.9302 79.888V82H82.9542ZM91.7862 69.568H102.874L99.4662 60.4C99.1142 59.408 98.7462 58.432 98.3622 57.472C98.0102 56.48 97.6582 55.488 97.3062 54.496H97.2102C96.8902 55.392 96.5542 56.288 96.2022 57.184C95.8822 58.08 95.5462 58.992 95.1942 59.92L91.7862 69.568Z"
    fill="black"
  />
</svg>
